<mxfile host="app.diagrams.net" modified="2024-07-03T07:56:28.073Z" agent="Mozilla/5.0 (X11; Linux x86_64; rv:122.0) Gecko/20100101 Firefox/122.0" etag="YIVH-YFsPaeNgqiCEwBX" version="24.6.4" type="github">
  <diagram name="Page-1" id="bd83a815-5ea8-2e97-e5ec-87c9f400f2fa">
    <mxGraphModel dx="2074" dy="1086" grid="1" gridSize="10" guides="1" tooltips="1" connect="1" arrows="1" fold="1" page="1" pageScale="1.5" pageWidth="1169" pageHeight="826" background="none" math="0" shadow="0">
      <root>
        <mxCell id="0" style=";html=1;" />
        <mxCell id="1" style=";html=1;" parent="0" />
        <mxCell id="CVwQvwuDQDXLG8AMk3o8-1" value="API" style="shape=table;startSize=30;container=1;collapsible=0;childLayout=tableLayout;strokeColor=default;fontSize=16;whiteSpace=wrap;" vertex="1" parent="1">
          <mxGeometry x="570" y="40" width="860" height="530" as="geometry" />
        </mxCell>
        <mxCell id="CVwQvwuDQDXLG8AMk3o8-2" value="" style="shape=tableRow;horizontal=0;startSize=0;swimlaneHead=0;swimlaneBody=0;strokeColor=inherit;top=0;left=0;bottom=0;right=0;collapsible=0;dropTarget=0;fillColor=none;points=[[0,0.5],[1,0.5]];portConstraint=eastwest;fontSize=16;" vertex="1" parent="CVwQvwuDQDXLG8AMk3o8-1">
          <mxGeometry y="30" width="860" height="40" as="geometry" />
        </mxCell>
        <mxCell id="CVwQvwuDQDXLG8AMk3o8-25" value="Тип запроса" style="shape=partialRectangle;html=1;whiteSpace=wrap;connectable=0;strokeColor=inherit;overflow=hidden;fillColor=none;top=0;left=0;bottom=0;right=0;pointerEvents=1;fontSize=16;" vertex="1" parent="CVwQvwuDQDXLG8AMk3o8-2">
          <mxGeometry width="110" height="40" as="geometry">
            <mxRectangle width="110" height="40" as="alternateBounds" />
          </mxGeometry>
        </mxCell>
        <mxCell id="CVwQvwuDQDXLG8AMk3o8-21" value="Url" style="shape=partialRectangle;html=1;whiteSpace=wrap;connectable=0;strokeColor=inherit;overflow=hidden;fillColor=none;top=0;left=0;bottom=0;right=0;pointerEvents=1;fontSize=16;" vertex="1" parent="CVwQvwuDQDXLG8AMk3o8-2">
          <mxGeometry x="110" width="110" height="40" as="geometry">
            <mxRectangle width="110" height="40" as="alternateBounds" />
          </mxGeometry>
        </mxCell>
        <mxCell id="CVwQvwuDQDXLG8AMk3o8-3" value="Name" style="shape=partialRectangle;html=1;whiteSpace=wrap;connectable=0;strokeColor=inherit;overflow=hidden;fillColor=none;top=0;left=0;bottom=0;right=0;pointerEvents=1;fontSize=16;" vertex="1" parent="CVwQvwuDQDXLG8AMk3o8-2">
          <mxGeometry x="220" width="110" height="40" as="geometry">
            <mxRectangle width="110" height="40" as="alternateBounds" />
          </mxGeometry>
        </mxCell>
        <mxCell id="CVwQvwuDQDXLG8AMk3o8-4" value="Host" style="shape=partialRectangle;html=1;whiteSpace=wrap;connectable=0;strokeColor=inherit;overflow=hidden;fillColor=none;top=0;left=0;bottom=0;right=0;pointerEvents=1;fontSize=16;" vertex="1" parent="CVwQvwuDQDXLG8AMk3o8-2">
          <mxGeometry x="330" width="160" height="40" as="geometry">
            <mxRectangle width="160" height="40" as="alternateBounds" />
          </mxGeometry>
        </mxCell>
        <mxCell id="CVwQvwuDQDXLG8AMk3o8-5" value="Params" style="shape=partialRectangle;html=1;whiteSpace=wrap;connectable=0;strokeColor=inherit;overflow=hidden;fillColor=none;top=0;left=0;bottom=0;right=0;pointerEvents=1;fontSize=16;" vertex="1" parent="CVwQvwuDQDXLG8AMk3o8-2">
          <mxGeometry x="490" width="150" height="40" as="geometry">
            <mxRectangle width="150" height="40" as="alternateBounds" />
          </mxGeometry>
        </mxCell>
        <mxCell id="CVwQvwuDQDXLG8AMk3o8-14" value="Comment" style="shape=partialRectangle;html=1;whiteSpace=wrap;connectable=0;strokeColor=inherit;overflow=hidden;fillColor=none;top=0;left=0;bottom=0;right=0;pointerEvents=1;fontSize=16;" vertex="1" parent="CVwQvwuDQDXLG8AMk3o8-2">
          <mxGeometry x="640" width="220" height="40" as="geometry">
            <mxRectangle width="220" height="40" as="alternateBounds" />
          </mxGeometry>
        </mxCell>
        <mxCell id="CVwQvwuDQDXLG8AMk3o8-6" value="" style="shape=tableRow;horizontal=0;startSize=0;swimlaneHead=0;swimlaneBody=0;strokeColor=inherit;top=0;left=0;bottom=0;right=0;collapsible=0;dropTarget=0;fillColor=none;points=[[0,0.5],[1,0.5]];portConstraint=eastwest;fontSize=16;" vertex="1" parent="CVwQvwuDQDXLG8AMk3o8-1">
          <mxGeometry y="70" width="860" height="140" as="geometry" />
        </mxCell>
        <mxCell id="CVwQvwuDQDXLG8AMk3o8-26" value="POST" style="shape=partialRectangle;html=1;whiteSpace=wrap;connectable=0;strokeColor=inherit;overflow=hidden;fillColor=none;top=0;left=0;bottom=0;right=0;pointerEvents=1;fontSize=16;" vertex="1" parent="CVwQvwuDQDXLG8AMk3o8-6">
          <mxGeometry width="110" height="140" as="geometry">
            <mxRectangle width="110" height="140" as="alternateBounds" />
          </mxGeometry>
        </mxCell>
        <mxCell id="CVwQvwuDQDXLG8AMk3o8-22" value="/auth/login?jwt=1" style="shape=partialRectangle;html=1;whiteSpace=wrap;connectable=0;strokeColor=inherit;overflow=hidden;fillColor=none;top=0;left=0;bottom=0;right=0;pointerEvents=1;fontSize=16;" vertex="1" parent="CVwQvwuDQDXLG8AMk3o8-6">
          <mxGeometry x="110" width="110" height="140" as="geometry">
            <mxRectangle width="110" height="140" as="alternateBounds" />
          </mxGeometry>
        </mxCell>
        <mxCell id="CVwQvwuDQDXLG8AMk3o8-7" value="Авторизация Омникомм" style="shape=partialRectangle;html=1;whiteSpace=wrap;connectable=0;strokeColor=inherit;overflow=hidden;fillColor=none;top=0;left=0;bottom=0;right=0;pointerEvents=1;fontSize=16;" vertex="1" parent="CVwQvwuDQDXLG8AMk3o8-6">
          <mxGeometry x="220" width="110" height="140" as="geometry">
            <mxRectangle width="110" height="140" as="alternateBounds" />
          </mxGeometry>
        </mxCell>
        <mxCell id="CVwQvwuDQDXLG8AMk3o8-8" value="https://online.omnicomm.ru" style="shape=partialRectangle;html=1;whiteSpace=wrap;connectable=0;strokeColor=inherit;overflow=hidden;fillColor=none;top=0;left=0;bottom=0;right=0;pointerEvents=1;fontSize=16;" vertex="1" parent="CVwQvwuDQDXLG8AMk3o8-6">
          <mxGeometry x="330" width="160" height="140" as="geometry">
            <mxRectangle width="160" height="140" as="alternateBounds" />
          </mxGeometry>
        </mxCell>
        <mxCell id="CVwQvwuDQDXLG8AMk3o8-9" value="" style="shape=partialRectangle;html=1;whiteSpace=wrap;connectable=0;strokeColor=inherit;overflow=hidden;fillColor=none;top=0;left=0;bottom=0;right=0;pointerEvents=1;fontSize=16;" vertex="1" parent="CVwQvwuDQDXLG8AMk3o8-6">
          <mxGeometry x="490" width="150" height="140" as="geometry">
            <mxRectangle width="150" height="140" as="alternateBounds" />
          </mxGeometry>
        </mxCell>
        <mxCell id="CVwQvwuDQDXLG8AMk3o8-15" value="Авторизация с предоставление логина и пароля" style="shape=partialRectangle;html=1;whiteSpace=wrap;connectable=0;strokeColor=inherit;overflow=hidden;fillColor=none;top=0;left=0;bottom=0;right=0;pointerEvents=1;fontSize=16;" vertex="1" parent="CVwQvwuDQDXLG8AMk3o8-6">
          <mxGeometry x="640" width="220" height="140" as="geometry">
            <mxRectangle width="220" height="140" as="alternateBounds" />
          </mxGeometry>
        </mxCell>
        <mxCell id="CVwQvwuDQDXLG8AMk3o8-10" value="" style="shape=tableRow;horizontal=0;startSize=0;swimlaneHead=0;swimlaneBody=0;strokeColor=inherit;top=0;left=0;bottom=0;right=0;collapsible=0;dropTarget=0;fillColor=none;points=[[0,0.5],[1,0.5]];portConstraint=eastwest;fontSize=16;" vertex="1" parent="CVwQvwuDQDXLG8AMk3o8-1">
          <mxGeometry y="210" width="860" height="160" as="geometry" />
        </mxCell>
        <mxCell id="CVwQvwuDQDXLG8AMk3o8-27" value="GET" style="shape=partialRectangle;html=1;whiteSpace=wrap;connectable=0;strokeColor=inherit;overflow=hidden;fillColor=none;top=0;left=0;bottom=0;right=0;pointerEvents=1;fontSize=16;" vertex="1" parent="CVwQvwuDQDXLG8AMk3o8-10">
          <mxGeometry width="110" height="160" as="geometry">
            <mxRectangle width="110" height="160" as="alternateBounds" />
          </mxGeometry>
        </mxCell>
        <mxCell id="CVwQvwuDQDXLG8AMk3o8-23" value="/ls/api/v1/tree/vehicle" style="shape=partialRectangle;html=1;whiteSpace=wrap;connectable=0;strokeColor=inherit;overflow=hidden;fillColor=none;top=0;left=0;bottom=0;right=0;pointerEvents=1;fontSize=16;" vertex="1" parent="CVwQvwuDQDXLG8AMk3o8-10">
          <mxGeometry x="110" width="110" height="160" as="geometry">
            <mxRectangle width="110" height="160" as="alternateBounds" />
          </mxGeometry>
        </mxCell>
        <mxCell id="CVwQvwuDQDXLG8AMk3o8-11" value="Получение списка транспорта" style="shape=partialRectangle;html=1;whiteSpace=wrap;connectable=0;strokeColor=inherit;overflow=hidden;fillColor=none;top=0;left=0;bottom=0;right=0;pointerEvents=1;fontSize=16;" vertex="1" parent="CVwQvwuDQDXLG8AMk3o8-10">
          <mxGeometry x="220" width="110" height="160" as="geometry">
            <mxRectangle width="110" height="160" as="alternateBounds" />
          </mxGeometry>
        </mxCell>
        <mxCell id="CVwQvwuDQDXLG8AMk3o8-12" value="" style="shape=partialRectangle;html=1;whiteSpace=wrap;connectable=0;strokeColor=inherit;overflow=hidden;fillColor=none;top=0;left=0;bottom=0;right=0;pointerEvents=1;fontSize=16;" vertex="1" parent="CVwQvwuDQDXLG8AMk3o8-10">
          <mxGeometry x="330" width="160" height="160" as="geometry">
            <mxRectangle width="160" height="160" as="alternateBounds" />
          </mxGeometry>
        </mxCell>
        <mxCell id="CVwQvwuDQDXLG8AMk3o8-13" value="" style="shape=partialRectangle;html=1;whiteSpace=wrap;connectable=0;strokeColor=inherit;overflow=hidden;fillColor=none;top=0;left=0;bottom=0;right=0;pointerEvents=1;fontSize=16;" vertex="1" parent="CVwQvwuDQDXLG8AMk3o8-10">
          <mxGeometry x="490" width="150" height="160" as="geometry">
            <mxRectangle width="150" height="160" as="alternateBounds" />
          </mxGeometry>
        </mxCell>
        <mxCell id="CVwQvwuDQDXLG8AMk3o8-16" value="Получаем список транспорта для передачи в параметры экспорта" style="shape=partialRectangle;html=1;whiteSpace=wrap;connectable=0;strokeColor=inherit;overflow=hidden;fillColor=none;top=0;left=0;bottom=0;right=0;pointerEvents=1;fontSize=16;" vertex="1" parent="CVwQvwuDQDXLG8AMk3o8-10">
          <mxGeometry x="640" width="220" height="160" as="geometry">
            <mxRectangle width="220" height="160" as="alternateBounds" />
          </mxGeometry>
        </mxCell>
        <mxCell id="CVwQvwuDQDXLG8AMk3o8-28" style="shape=tableRow;horizontal=0;startSize=0;swimlaneHead=0;swimlaneBody=0;strokeColor=inherit;top=0;left=0;bottom=0;right=0;collapsible=0;dropTarget=0;fillColor=none;points=[[0,0.5],[1,0.5]];portConstraint=eastwest;fontSize=16;" vertex="1" parent="CVwQvwuDQDXLG8AMk3o8-1">
          <mxGeometry y="370" width="860" height="160" as="geometry" />
        </mxCell>
        <mxCell id="CVwQvwuDQDXLG8AMk3o8-29" value="POST" style="shape=partialRectangle;html=1;whiteSpace=wrap;connectable=0;strokeColor=inherit;overflow=hidden;fillColor=none;top=0;left=0;bottom=0;right=0;pointerEvents=1;fontSize=16;" vertex="1" parent="CVwQvwuDQDXLG8AMk3o8-28">
          <mxGeometry width="110" height="160" as="geometry">
            <mxRectangle width="110" height="160" as="alternateBounds" />
          </mxGeometry>
        </mxCell>
        <mxCell id="CVwQvwuDQDXLG8AMk3o8-30" value="/migration" style="shape=partialRectangle;html=1;whiteSpace=wrap;connectable=0;strokeColor=inherit;overflow=hidden;fillColor=none;top=0;left=0;bottom=0;right=0;pointerEvents=1;fontSize=16;" vertex="1" parent="CVwQvwuDQDXLG8AMk3o8-28">
          <mxGeometry x="110" width="110" height="160" as="geometry">
            <mxRectangle width="110" height="160" as="alternateBounds" />
          </mxGeometry>
        </mxCell>
        <mxCell id="CVwQvwuDQDXLG8AMk3o8-31" value="Экспорт" style="shape=partialRectangle;html=1;whiteSpace=wrap;connectable=0;strokeColor=inherit;overflow=hidden;fillColor=none;top=0;left=0;bottom=0;right=0;pointerEvents=1;fontSize=16;" vertex="1" parent="CVwQvwuDQDXLG8AMk3o8-28">
          <mxGeometry x="220" width="110" height="160" as="geometry">
            <mxRectangle width="110" height="160" as="alternateBounds" />
          </mxGeometry>
        </mxCell>
        <mxCell id="CVwQvwuDQDXLG8AMk3o8-32" style="shape=partialRectangle;html=1;whiteSpace=wrap;connectable=0;strokeColor=inherit;overflow=hidden;fillColor=none;top=0;left=0;bottom=0;right=0;pointerEvents=1;fontSize=16;" vertex="1" parent="CVwQvwuDQDXLG8AMk3o8-28">
          <mxGeometry x="330" width="160" height="160" as="geometry">
            <mxRectangle width="160" height="160" as="alternateBounds" />
          </mxGeometry>
        </mxCell>
        <mxCell id="CVwQvwuDQDXLG8AMk3o8-33" style="shape=partialRectangle;html=1;whiteSpace=wrap;connectable=0;strokeColor=inherit;overflow=hidden;fillColor=none;top=0;left=0;bottom=0;right=0;pointerEvents=1;fontSize=16;" vertex="1" parent="CVwQvwuDQDXLG8AMk3o8-28">
          <mxGeometry x="490" width="150" height="160" as="geometry">
            <mxRectangle width="150" height="160" as="alternateBounds" />
          </mxGeometry>
        </mxCell>
        <mxCell id="CVwQvwuDQDXLG8AMk3o8-34" value="Экспортируем данныем с указанными параметрами(машины или водители и тд)" style="shape=partialRectangle;html=1;whiteSpace=wrap;connectable=0;strokeColor=inherit;overflow=hidden;fillColor=none;top=0;left=0;bottom=0;right=0;pointerEvents=1;fontSize=16;" vertex="1" parent="CVwQvwuDQDXLG8AMk3o8-28">
          <mxGeometry x="640" width="220" height="160" as="geometry">
            <mxRectangle width="220" height="160" as="alternateBounds" />
          </mxGeometry>
        </mxCell>
      </root>
    </mxGraphModel>
  </diagram>
</mxfile>
